<?xml version="1.0" standalone="no"?>
<!DOCTYPE svg PUBLIC "-//W3C//DTD SVG 20010904//EN"
 "http://www.w3.org/TR/2001/REC-SVG-20010904/DTD/svg10.dtd">
<svg version="1.0" xmlns="http://www.w3.org/2000/svg"
 width="267.000000pt" height="267.000000pt" viewBox="0 0 267.000000 267.000000"
 preserveAspectRatio="xMidYMid meet">
<metadata>
Created by potrace 1.11, written by Peter Selinger 2001-2013
</metadata>
<g transform="translate(0.000000,267.000000) scale(0.100000,-0.100000)"
fill="#000000" stroke="none">
<path d="M1300 2450 c0 -6 28 -10 68 -9 52 1 60 3 37 9 -45 11 -105 11 -105 0z"/>
<path d="M1250 2440 c-8 -4 -25 -12 -38 -19 -34 -17 -114 -23 -124 -8 -6 9
-10 9 -17 -2 -6 -10 -20 -12 -45 -8 -25 4 -34 2 -30 -5 4 -6 3 -8 -4 -4 -12 7
-128 -41 -120 -50 4 -3 30 2 60 11 70 21 203 31 212 17 11 -18 -29 -25 -141
-22 -58 1 -65 -2 -101 -34 -22 -20 -42 -32 -46 -29 -4 4 -4 0 0 -10 3 -10 1
-17 -5 -17 -6 0 -10 3 -10 8 3 16 -1 32 -8 31 -22 -4 -43 2 -43 12 0 5 3 8 8
6 4 -2 16 5 26 16 19 20 19 20 -5 13 -13 -4 -35 -10 -49 -13 -14 -3 -34 -12
-45 -19 -26 -18 -66 -18 -91 1 -22 17 -54 20 -54 5 0 -6 -8 -5 -19 2 -16 10
-26 8 -55 -7 -32 -17 -40 -18 -68 -6 -76 31 -98 4 -60 -73 15 -30 21 -63 22
-121 2 -98 2 -103 -9 -87 -6 10 -18 0 -45 -37 -21 -28 -40 -51 -43 -51 -3 0
-3 59 1 131 6 107 11 138 28 168 37 65 5 116 -48 76 -25 -19 -60 -19 -94 1
-58 35 -79 -12 -38 -82 21 -36 22 -52 26 -278 4 -235 3 -243 -23 -341 -32
-122 -43 -286 -25 -395 7 -41 14 -132 17 -201 4 -105 2 -131 -11 -151 -14 -22
-14 -26 0 -46 14 -20 23 -23 67 -20 45 3 52 6 49 23 -2 18 0 17 17 -5 29 -36
26 -43 -15 -37 -41 7 -51 -7 -36 -52 15 -44 4 -111 -19 -111 -44 0 -65 -84
-29 -120 22 -22 17 -58 -5 -40 -20 17 -44 1 -54 -36 -10 -37 -5 -67 17 -101
31 -48 94 -11 108 62 6 31 8 33 30 23 21 -10 24 -16 19 -40 -11 -49 6 -58 114
-58 90 0 99 2 120 24 13 14 26 44 30 72 l8 49 7 -37 c4 -20 5 -45 2 -55 -9
-27 25 -55 61 -51 27 3 28 6 30 56 2 58 6 68 22 57 14 -8 14 -41 -1 -64 -21
-35 3 -47 102 -54 64 -4 97 -2 115 7 14 7 22 15 19 18 -2 3 2 8 11 12 9 3 13
2 10 -4 -3 -6 -1 -10 4 -10 6 0 11 -6 11 -14 0 -13 87 -42 97 -32 3 3 -6 8
-21 12 -25 6 -38 34 -15 34 5 0 8 -4 5 -9 -7 -11 27 -19 119 -26 39 -3 84 -8
100 -11 23 -4 26 -3 15 5 -12 9 -7 11 20 10 19 -1 52 1 73 4 24 3 40 0 45 -9
6 -10 15 -9 45 4 21 9 38 22 38 27 0 6 5 11 12 11 6 1 17 3 22 4 6 1 18 2 27
1 10 -1 27 3 38 9 16 9 25 8 36 -1 19 -16 18 -29 -3 -30 -16 0 -15 -1 2 -8 30
-12 -155 -45 -257 -45 -49 -1 -88 -5 -88 -10 0 -28 410 23 482 60 17 9 29 10
33 4 3 -6 42 -10 87 -10 l80 0 -7 46 c-4 32 -3 44 4 39 6 -3 11 -12 11 -20 0
-7 12 -27 26 -44 30 -36 66 -40 87 -11 13 18 16 19 27 5 18 -22 165 -22 178 0
7 14 11 13 27 -5 18 -20 55 -27 69 -12 4 4 51 5 103 3 l96 -3 -7 28 c-7 34 -7
249 0 269 3 7 1 22 -4 32 -9 15 -25 18 -110 19 -55 1 -105 4 -111 8 -16 10
-50 -12 -71 -47 -18 -29 -20 -30 -20 -9 0 13 23 50 54 87 30 35 59 73 66 84 6
12 21 21 35 21 13 0 27 5 30 10 5 8 11 7 20 0 8 -6 26 -10 42 -8 l28 3 -3 71
c-3 61 0 79 23 128 29 62 29 104 -1 137 -13 14 -13 29 -4 105 6 49 15 101 21
116 8 21 7 38 -5 75 -9 26 -18 71 -22 98 -3 28 -10 59 -14 70 -5 11 -23 56
-40 100 -17 44 -34 86 -37 94 -5 11 -2 11 17 1 62 -33 125 103 90 195 -7 18
-16 25 -28 22 -9 -2 -33 8 -52 22 -44 32 -98 34 -139 4 l-29 -22 -69 67 c-116
114 -271 216 -403 265 -14 5 -36 15 -50 22 -67 34 -156 41 -130 10 14 -16 -16
-14 -73 4 -21 7 -41 11 -44 8 -2 -3 -25 0 -49 8 -24 7 -44 10 -44 6 0 -5 -14
-8 -30 -9 -17 0 -28 3 -25 8 6 10 -29 20 -72 20 -17 0 -33 4 -35 9 -1 5 -10 5
-18 1z m106 -68 c-21 -2 -42 0 -47 5 -4 4 13 6 39 3 l47 -5 -39 -3z m179 8
c-3 -5 -14 -10 -23 -9 -14 0 -13 2 3 9 27 11 27 11 20 0z m-95 -15 c-32 -18
-46 -19 -32 -2 6 7 21 13 34 14 23 2 23 2 -2 -12z m319 -4 c27 -10 59 -26 72
-35 24 -18 24 -18 2 -11 -14 4 -23 2 -23 -5 0 -6 -13 -2 -30 10 -16 12 -30 17
-30 11 0 -6 5 -11 10 -11 6 0 10 -5 10 -12 0 -6 -9 -3 -20 7 -16 15 -18 21 -7
33 10 13 8 14 -16 8 -19 -4 -33 -2 -43 9 -14 13 -13 15 5 15 12 0 43 -8 70
-19z m-547 -3 c-14 -14 -16 -32 -2 -23 5 3 7 0 4 -9 -3 -8 -12 -17 -20 -20 -8
-3 -12 -2 -9 3 3 5 -4 12 -15 16 -11 3 -20 10 -20 15 0 5 6 7 13 4 7 -2 21 2
32 10 24 19 33 20 17 4z m88 2 c12 -1 11 -3 -3 -11 -13 -7 -23 -6 -40 7 l-22
16 25 -6 c14 -3 32 -6 40 -6z m340 -25 c-14 -17 -30 -20 -30 -6 0 5 8 12 18
14 9 3 19 5 21 6 2 0 -2 -6 -9 -14z m-46 -10 c7 -20 -32 -26 -43 -7 -8 15 -14
14 -55 -6 -34 -18 -50 -21 -63 -13 -17 10 -17 11 2 12 19 2 26 3 50 9 6 2 -6
6 -25 10 -25 5 -13 7 47 7 59 1 83 -2 87 -12z m-539 -25 c30 -17 60 -28 69
-24 22 8 20 -3 -5 -29 -37 -39 -59 -94 -60 -149 0 -46 -2 -50 -11 -28 -5 14
-16 39 -24 57 -11 28 -11 31 1 26 24 -8 18 24 -7 41 -12 9 -32 16 -44 16 -32
0 -71 -46 -79 -90 -11 -65 14 -135 35 -100 6 10 10 9 16 -3 5 -8 39 -36 76
-61 37 -26 76 -62 87 -80 24 -38 28 -61 6 -32 -23 30 -27 14 -9 -35 12 -31 17
-76 18 -149 0 -89 -4 -113 -23 -158 -32 -71 -70 -102 -126 -102 -35 0 -52 6
-78 30 -39 34 -52 38 -43 14 5 -14 4 -15 -9 -4 -26 22 -48 117 -43 189 8 102
48 162 99 146 20 -7 59 -60 59 -80 0 -5 -5 -2 -11 8 -12 21 -31 23 -23 2 4
-10 0 -15 -14 -15 -11 0 -30 -12 -41 -26 -35 -45 -24 -175 14 -160 7 2 23 -6
36 -20 30 -32 69 -31 101 4 52 56 65 170 27 245 -17 33 -18 39 -5 28 9 -8 19
-11 22 -8 11 10 -20 44 -70 78 -28 18 -64 44 -80 57 -33 27 -43 23 -25 -10 11
-21 11 -22 -4 -10 -56 46 -72 260 -28 360 29 63 71 102 113 102 17 0 54 -14
83 -30z m679 8 c21 -30 20 -44 -1 -27 -15 13 -16 12 -9 -11 15 -47 18 -185 6
-255 -7 -38 -32 -132 -56 -208 -24 -76 -44 -144 -44 -152 0 -7 -7 -36 -17 -64
-16 -51 -13 -96 12 -153 6 -16 1 -18 -46 -18 -35 0 -59 -6 -71 -17 -23 -20
-24 -5 -3 52 16 47 18 30 -51 433 -42 244 -59 323 -79 359 -28 53 -20 75 16
49 29 -20 76 -20 109 -1 42 24 46 17 9 -21 -33 -34 -34 -37 -33 -117 0 -71 77
-553 90 -566 12 -13 42 36 48 77 3 26 22 99 41 162 40 131 53 223 37 269 -6
17 -8 30 -4 28 7 -2 12 7 12 22 0 15 -38 19 -57 6 -12 -9 -17 -25 -16 -56 2
-38 0 -41 -10 -24 -18 32 -13 164 8 205 10 19 23 38 29 42 23 16 65 8 80 -14z
m-1414 2 c0 -5 -15 -26 -32 -46 l-33 -37 -3 -185 c-3 -183 -3 -184 18 -177 25
8 141 83 153 99 5 6 5 62 2 125 -4 84 -11 124 -25 152 -32 61 -25 85 16 54 27
-21 77 -18 108 6 33 26 34 6 1 -27 -13 -13 -29 -33 -34 -43 -14 -25 -26 -477
-17 -632 8 -126 18 -167 34 -141 7 9 13 8 27 -8 25 -28 15 -34 -56 -31 -46 2
-65 -2 -80 -15 -18 -16 -19 -16 -19 0 0 9 10 31 23 47 21 29 22 42 26 232 2
136 7 204 14 209 9 5 9 10 0 19 -17 17 -61 -7 -82 -43 -11 -19 -24 -28 -41
-28 -14 0 -36 -7 -48 -16 -21 -15 -22 -21 -22 -182 0 -159 9 -214 28 -184 7 9
13 8 27 -8 25 -28 15 -34 -56 -31 -46 2 -65 -2 -80 -15 -18 -16 -19 -16 -19 0
0 9 10 30 23 47 22 30 22 34 22 367 0 340 -4 435 -20 449 -4 5 -5 -1 -2 -12 7
-20 7 -20 -8 -1 -16 21 -20 56 -7 56 4 -1 18 -7 32 -15 35 -20 74 -18 101 5
28 23 29 23 29 10z m975 0 c3 -5 1 -10 -4 -10 -6 0 -11 5 -11 10 0 6 2 10 4
10 3 0 8 -4 11 -10z m-665 -15 c33 -19 71 -19 96 0 41 31 47 14 9 -25 l-40
-41 -3 -363 c-3 -366 2 -424 32 -413 8 3 22 -3 32 -14 20 -22 21 -21 -69 -19
-43 1 -64 -3 -78 -16 -28 -25 -26 5 4 42 22 28 22 33 25 372 3 316 0 368 -24
427 -7 18 -6 19 9 6 15 -12 17 -12 11 3 -3 9 -14 15 -23 14 -10 -2 -17 5 -19
20 -4 25 3 27 38 7z m954 -20 c-4 -8 -10 -12 -15 -9 -14 8 -10 24 6 24 9 0 12
-6 9 -15z m-759 -4 c3 -5 -4 -16 -15 -24 -11 -7 -17 -17 -13 -20 3 -4 2 -7 -4
-7 -18 0 -22 12 -11 36 11 24 32 32 43 15z m523 -16 c7 -16 8 -26 1 -30 -5 -4
-9 -3 -8 2 3 19 -2 25 -15 14 -15 -13 -116 -22 -116 -11 0 11 26 31 32 25 3
-3 20 1 39 9 47 21 54 20 67 -9z m534 8 c7 -6 31 -22 52 -37 47 -32 22 -35
-30 -4 -21 12 -35 17 -31 11 4 -6 0 -13 -8 -17 -21 -8 -19 -43 3 -50 15 -5 19
-17 20 -51 0 -51 -6 -54 -55 -24 -32 20 -34 24 -31 68 2 28 7 45 15 44 6 -1
17 5 25 14 11 14 11 16 -4 11 -10 -4 -19 -1 -22 8 -3 8 -13 14 -23 14 -15 0
-15 1 2 14 21 15 68 14 87 -1z m-1289 -44 c-6 -21 -41 -45 -51 -35 -3 4 2 22
12 42 13 29 19 34 30 25 8 -7 12 -21 9 -32z m603 -14 c5 -11 11 -12 25 -4 13
6 19 6 19 0 0 -6 7 -8 15 -5 8 4 15 1 15 -5 0 -6 -5 -11 -12 -11 -6 0 -20 -7
-29 -16 -17 -15 -20 -15 -44 0 -23 15 -38 45 -15 31 6 -3 7 1 4 9 -3 9 -1 16
5 16 7 0 14 -7 17 -15z m394 -1 c0 -1 -3 -10 -6 -18 -5 -13 -9 -14 -20 -5 -20
16 -17 25 6 25 11 0 20 -1 20 -2z m-800 -14 c0 -5 -4 -10 -10 -10 -5 0 -10 5
-10 10 0 6 5 10 10 10 6 0 10 -4 10 -10z m375 -20 c3 -5 -1 -10 -9 -10 -9 0
-16 5 -16 10 0 6 4 10 9 10 6 0 13 -4 16 -10z m229 -73 c-6 -16 -63 -51 -71
-44 -12 12 19 36 74 56 1 1 0 -5 -3 -12z m-774 -76 c0 -17 -6 -31 -15 -35 -13
-5 -14 -2 -4 15 6 11 8 27 5 35 -3 8 -1 14 4 14 6 0 10 -13 10 -29z m1809 15
c15 -8 33 -22 41 -31 8 -10 20 -13 33 -9 20 6 20 5 6 -17 -9 -13 -18 -43 -22
-67 -8 -68 -57 -108 -57 -47 0 12 7 25 15 29 18 6 20 39 4 68 -8 16 -8 19 1
13 8 -5 11 -3 8 6 -8 24 -56 45 -75 33 -45 -28 -57 -61 -61 -165 -3 -60 0
-105 6 -111 16 -16 51 9 58 40 11 54 22 68 17 22 -9 -70 -19 -90 -47 -90 -29
0 -36 -16 -35 -83 1 -87 12 -142 29 -142 8 -1 25 -7 38 -14 44 -24 77 4 94 79
5 24 6 13 3 -36 -2 -45 1 -76 8 -83 8 -8 -13 -11 -83 -11 -63 0 -104 -5 -122
-14 -32 -17 -36 -11 -10 17 15 17 17 44 17 246 0 124 4 229 9 232 5 4 5 12 1
18 -5 9 -10 9 -21 0 -30 -24 -15 40 18 77 47 54 80 64 127 40z m-1883 -22 c-5
-12 -1 -14 15 -9 18 6 19 4 10 -12 -5 -11 -16 -25 -23 -31 -11 -9 -14 -5 -16
19 -2 29 4 49 15 49 3 0 2 -7 -1 -16z m1305 -1 c15 -3 30 0 33 6 4 6 12 11 19
11 6 0 -4 -15 -22 -33 l-32 -34 3 -261 c3 -230 10 -307 25 -264 4 10 9 8 19
-5 20 -27 17 -32 -14 -21 -22 9 -36 8 -60 -5 -36 -17 -40 -13 -14 16 15 17 17
45 17 261 0 245 -4 318 -17 309 -5 -2 -8 -2 -8 1 0 2 -3 12 -7 22 -5 14 -3 16
13 9 10 -4 31 -10 45 -12z m155 0 c12 -3 32 1 45 8 23 12 23 12 6 -12 -31 -44
-31 -51 18 -198 68 -207 62 -194 84 -181 18 9 19 20 16 159 -3 128 -6 154 -25
191 -21 42 -20 64 2 42 15 -15 55 -16 63 -2 3 6 12 10 18 10 7 0 -1 -13 -18
-28 l-30 -27 3 -174 c3 -140 1 -176 -11 -189 -20 -23 -11 -83 12 -81 32 3 35
-1 12 -17 -22 -16 -23 -22 -18 -83 5 -62 0 -51 -69 153 -55 164 -71 222 -61
228 9 6 9 10 0 19 -7 7 -16 9 -20 5 -5 -4 -10 -76 -13 -159 -3 -88 -11 -160
-17 -172 -7 -11 -14 -36 -18 -56 -3 -19 -12 -44 -19 -55 -13 -17 -15 -15 -26
25 -16 60 -2 117 28 114 32 -4 37 28 37 217 -1 133 -4 172 -18 204 -12 26 -13
36 -4 30 7 -5 3 0 -10 11 -27 25 -30 40 -5 30 9 -4 27 -10 38 -12z m-1206 -43
c0 -5 -2 -10 -4 -10 -3 0 -8 5 -11 10 -3 6 -1 10 4 10 6 0 11 -4 11 -10z
m-206 -16 c3 -8 2 -12 -4 -9 -6 3 -10 10 -10 16 0 14 7 11 14 -7z m645 -37
c-22 -16 -43 -27 -46 -23 -4 3 -2 6 4 6 6 0 18 16 27 35 15 30 19 33 36 23 17
-11 16 -14 -21 -41z m1196 22 c5 -15 2 -25 -9 -31 -9 -5 -16 -18 -16 -28 0
-27 -18 -25 -25 3 -14 52 35 105 50 56z m-1600 -37 c-5 -5 -45 22 -45 31 0 4
11 0 24 -10 13 -10 23 -19 21 -21z m345 28 c0 -5 -4 -10 -10 -10 -5 0 -10 5
-10 10 0 6 5 10 10 10 6 0 10 -4 10 -10z m-586 -15 c-4 -8 -11 -12 -16 -9 -6
4 -5 10 3 15 19 12 19 11 13 -6z m670 -41 c3 -8 2 -12 -4 -9 -6 3 -10 10 -10
16 0 14 7 11 14 -7z m-673 -18 c-10 -12 -8 -13 8 -9 15 4 21 1 21 -11 0 -12
-5 -14 -23 -7 -14 5 -30 5 -40 0 -24 -14 -21 -1 6 22 26 22 45 25 28 5z m20
-53 c8 -9 9 -14 2 -10 -14 9 -60 -11 -67 -28 -4 -10 2 -10 22 1 40 21 52 17
52 -14 0 -17 -12 -41 -31 -62 -17 -19 -27 -28 -24 -20 4 8 -2 5 -12 -8 l-19
-23 -2 37 c-2 22 3 41 10 46 10 8 10 11 1 15 -21 8 -15 49 10 66 29 21 42 21
58 0z m1649 7 c0 -5 -2 -10 -4 -10 -3 0 -8 5 -11 10 -3 6 -1 10 4 10 6 0 11
-4 11 -10z m-1908 -35 c5 -39 -7 -34 -17 8 -4 16 -3 27 3 27 5 0 12 -16 14
-35z m51 10 c4 -8 2 -17 -3 -20 -6 -4 -10 3 -10 14 0 25 6 27 13 6z m617 -61
c0 -2 -8 -8 -18 -13 -14 -7 -18 -6 -18 8 0 12 6 17 18 13 10 -2 18 -6 18 -8z
m-263 -26 c-3 -7 -5 -2 -5 12 0 14 2 19 5 13 2 -7 2 -19 0 -25z m-416 -8 l24
-20 -32 16 c-33 15 -41 24 -24 24 5 0 19 -9 32 -20z m2074 -40 c22 -43 18 -61
-5 -20 -11 19 -19 38 -20 43 0 15 10 6 25 -23z m-2008 -39 c0 -11 -5 -17 -9
-15 -11 7 -10 34 1 34 6 0 9 -9 8 -19z m208 -30 c-3 -6 -11 -11 -17 -11 -6 0
-6 6 2 15 14 17 26 13 15 -4z m421 4 c18 -13 16 -14 -23 -15 -46 0 -67 16 -31
23 13 2 26 5 29 6 3 0 14 -6 25 -14z m-641 -5 c3 -5 2 -10 -4 -10 -5 0 -13 5
-16 10 -3 6 -2 10 4 10 5 0 13 -4 16 -10z m175 -15 c-7 -9 -15 -13 -17 -11 -7
7 7 26 19 26 6 0 6 -6 -2 -15z m184 0 c3 -8 1 -15 -4 -15 -6 0 -10 7 -10 15 0
8 2 15 4 15 2 0 6 -7 10 -15z m440 0 c-4 -8 -8 -15 -10 -15 -2 0 -4 7 -4 15 0
8 4 15 10 15 5 0 7 -7 4 -15z m-259 -26 c11 -17 -1 -21 -15 -4 -8 9 -8 15 -2
15 6 0 14 -5 17 -11z m-135 -46 c0 -9 9 -31 21 -49 16 -27 17 -33 5 -28 -11 4
-16 0 -16 -11 0 -12 -9 -5 -25 19 -29 43 -31 56 -9 56 11 0 15 6 11 20 -3 11
-1 18 4 14 5 -3 9 -12 9 -21z m470 16 c12 -9 12 -10 -3 -5 -12 4 -17 2 -14 -6
2 -7 9 -12 15 -11 6 2 9 -3 6 -11 -3 -8 -1 -17 5 -21 6 -3 11 -11 11 -17 0 -6
-3 -8 -7 -5 -3 4 -12 2 -19 -4 -11 -9 -10 -15 3 -35 9 -14 12 -24 7 -23 -22 4
-34 -2 -35 -18 0 -12 -2 -13 -6 -5 -3 7 3 22 13 33 17 18 16 19 -9 19 -15 0
-27 -5 -27 -11 0 -6 -6 -9 -14 -6 -8 3 -17 3 -20 -1 -22 -22 -36 -3 -27 37 1
2 8 -2 16 -9 8 -7 15 -9 15 -4 0 5 4 3 8 -4 7 -9 13 -8 27 8 16 18 16 20 2 21
-25 2 -31 4 -44 12 -6 4 -19 0 -27 -9 -19 -18 -20 -14 -4 21 9 21 18 25 42 23
24 -2 33 2 41 20 11 24 22 27 45 11z m1125 1 c3 -5 1 -10 -4 -10 -6 0 -11 5
-11 10 0 6 2 10 4 10 3 0 8 -4 11 -10z m-1408 -26 c-3 -3 -12 -4 -19 -1 -8 3
-5 6 6 6 11 1 17 -2 13 -5z m379 -26 c-3 -13 -5 -26 -5 -29 -1 -4 -8 -10 -17
-13 -8 -3 -13 -2 -10 3 3 4 10 20 15 35 13 32 22 34 17 4z m-786 -8 c0 -5 -5
-10 -11 -10 -5 0 -7 5 -4 10 3 6 8 10 11 10 2 0 4 -4 4 -10z m1949 -40 c0 -10
-3 -8 -9 5 -12 27 -12 43 0 25 5 -8 9 -22 9 -30z m-1059 0 c0 -5 -2 -10 -4
-10 -3 0 -8 5 -11 10 -3 6 -1 10 4 10 6 0 11 -4 11 -10z m-103 -37 c-8 -10
-16 -21 -16 -25 -1 -8 -9 -11 -13 -5 -4 5 28 47 36 47 5 0 2 -8 -7 -17z m43 7
c0 -5 -5 -10 -11 -10 -5 0 -7 5 -4 10 3 6 8 10 11 10 2 0 4 -4 4 -10z m-303
-6 c-3 -3 -12 -4 -19 -1 -8 3 -5 6 6 6 11 1 17 -2 13 -5z m106 -19 c-3 -9 -8
-14 -10 -11 -3 3 -2 9 2 15 9 16 15 13 8 -4z m247 -5 c0 -5 -4 -10 -10 -10 -5
0 -7 -6 -4 -14 6 -16 -22 -30 -31 -16 -4 6 0 10 7 11 12 0 -18 17 -34 18 -16
2 -7 -25 11 -39 11 -7 18 -17 15 -22 -3 -4 -15 2 -28 15 -28 26 -18 62 14 52
10 -3 21 -1 25 5 8 13 35 13 35 0z m-188 -12 c-7 -7 -12 -19 -12 -27 0 -14 1
-14 10 -1 5 8 10 13 10 10 7 -39 6 -71 -1 -76 -15 -9 -10 -24 5 -18 8 3 17 0
22 -7 5 -9 2 -10 -10 -6 -10 4 -19 1 -23 -8 -4 -13 -9 -11 -28 7 -25 26 -38
75 -22 85 6 4 7 1 2 -7 -5 -8 -3 -11 6 -8 8 3 14 14 15 25 1 26 12 43 27 43 8
0 8 -3 -1 -12z m62 -30 c-5 -7 6 -19 65 -67 28 -23 31 -29 17 -34 -10 -4 -15
-3 -11 3 8 12 -13 21 -56 23 -18 1 -34 8 -37 15 -2 8 2 10 15 5 16 -6 16 -5 4
11 -8 9 -20 15 -28 12 -18 -7 -16 4 4 26 10 12 12 18 4 18 -7 0 -9 4 -6 10 4
6 11 5 19 -3 8 -6 12 -15 10 -19z m-1053 -47 c13 -10 29 -16 35 -14 8 3 9 -8
4 -38 -8 -44 -32 -75 -49 -65 -14 9 -14 36 0 36 6 0 9 16 7 38 -2 28 -8 38
-24 40 -37 5 -57 -31 -62 -114 -4 -70 -3 -76 14 -72 10 2 21 14 25 28 6 20 7
16 6 -16 0 -37 -2 -40 -24 -36 -23 4 -23 3 -23 -81 0 -77 2 -86 23 -100 21
-14 21 -15 -24 -18 l-46 -4 14 32 c22 53 15 331 -8 317 -13 -8 -11 3 6 36 27
52 82 66 126 31z m752 1 c32 -17 33 -18 15 -36 -10 -11 -19 -33 -19 -50 -2
-31 -2 -31 -12 7 -9 33 -14 38 -36 35 -18 -2 -29 -12 -36 -32 -9 -26 -7 -31
24 -55 98 -75 95 -71 93 -151 -4 -111 -38 -155 -104 -134 -13 4 -25 7 -28 7
-14 -1 -31 42 -32 80 -1 72 31 109 62 72 7 -9 11 -16 9 -18 -2 -1 -13 -7 -24
-13 -29 -16 -31 -52 -4 -80 27 -28 50 -31 71 -6 48 55 11 166 -60 176 -35 6
-54 94 -31 153 24 64 55 76 112 45z m157 3 c-7 -8 -8 -15 -3 -15 5 0 17 -17
27 -37 l18 -38 -22 23 c-12 12 -24 20 -28 18 -4 -2 -7 6 -7 18 1 23 12 46 22
46 3 0 0 -7 -7 -15z m-72 -95 c3 -18 0 -21 -13 -16 -9 3 -21 6 -26 6 -6 0 -5
9 1 21 14 25 34 20 38 -11z m32 0 c0 -5 -4 -10 -10 -10 -5 0 -10 5 -10 10 0 6
5 10 10 10 6 0 10 -4 10 -10z m110 6 c0 -2 -7 -7 -16 -10 -8 -3 -12 -2 -9 4 6
10 25 14 25 6z m35 -6 c3 -5 2 -10 -4 -10 -5 0 -13 5 -16 10 -3 6 -2 10 4 10
5 0 13 -4 16 -10z m695 -10 c0 -5 -10 -10 -22 -10 -19 0 -20 2 -8 10 19 13 30
13 30 0z m-1130 -10 c0 -5 -2 -10 -4 -10 -3 0 -8 5 -11 10 -3 6 -1 10 4 10 6
0 11 -4 11 -10z m-416 -16 c9 -8 17 -18 17 -22 12 -71 1 -122 -26 -122 -22 0
-18 -16 7 -34 12 -9 17 -16 10 -16 -12 0 -12 -1 19 -65 15 -29 15 -30 -11 -30
-21 0 -26 4 -23 20 2 11 -5 47 -16 79 -22 62 -27 91 -12 67 5 -8 16 -11 26 -7
13 5 16 16 13 53 -3 43 -6 48 -28 48 -37 0 -50 -37 -50 -139 0 -64 4 -94 14
-105 13 -14 11 -16 -15 -17 -23 -1 -27 2 -18 12 7 8 10 58 8 135 -3 117 -2
122 20 140 28 23 45 24 65 3z m156 -2 c21 -14 25 -23 20 -46 -8 -45 -28 -44
-26 1 1 32 -3 39 -20 41 -25 4 -44 -38 -44 -96 0 -29 3 -34 20 -29 11 3 20 2
20 -3 0 -4 -10 -10 -21 -13 -19 -5 -21 -11 -16 -47 3 -22 11 -47 17 -55 18
-21 49 -18 58 5 6 17 9 15 17 -13 l10 -32 -67 0 c-42 0 -64 3 -58 10 13 12 13
218 0 231 -7 7 -3 19 14 37 29 32 42 33 76 9z m151 0 c23 -15 25 -21 17 -49
-12 -44 -26 -42 -24 5 1 31 -3 38 -20 40 -25 4 -44 -38 -44 -96 0 -29 3 -34
20 -29 11 3 20 2 20 -3 0 -4 -9 -10 -20 -13 -15 -4 -20 -14 -20 -39 0 -63 55
-105 76 -58 8 19 10 18 19 -12 l10 -33 -67 0 c-42 0 -64 3 -58 10 15 14 13
232 -2 237 -15 5 35 58 54 58 7 0 25 -8 39 -18z m439 0 c21 -14 25 -23 20 -46
-8 -45 -28 -44 -26 1 1 32 -2 38 -21 41 -18 3 -24 -3 -30 -29 -12 -46 -4 -102
13 -95 8 3 14 1 14 -4 0 -6 -7 -10 -15 -10 -19 0 -21 -90 -3 -108 18 -18 48
-14 56 8 6 17 9 15 17 -13 l10 -32 -66 0 c-51 0 -65 3 -57 12 5 7 8 64 7 137
-2 69 -1 127 1 129 8 7 45 26 50 27 3 0 16 -8 30 -18z m188 -41 c1 -27 -7 -73
-17 -102 -23 -63 -27 -55 -7 12 14 45 11 99 -4 99 -5 0 -11 -8 -13 -17 -3 -13
-5 -12 -6 5 -1 32 16 62 33 56 8 -3 14 -23 14 -53z m116 41 c33 -18 34 -19 20
-51 -8 -18 -18 -30 -24 -26 -8 5 -8 11 0 20 16 19 3 55 -20 55 -26 0 -40 -30
-40 -84 0 -33 4 -46 14 -46 8 0 17 8 19 18 4 13 5 11 6 -5 1 -17 -5 -23 -19
-23 -17 0 -20 -7 -20 -43 0 -71 57 -103 79 -45 7 20 9 19 13 -14 l4 -36 -62
-4 c-58 -3 -61 -2 -52 15 12 23 8 220 -5 228 -9 6 34 59 48 59 3 0 20 -8 39
-18z m666 8 c28 -15 39 -40 45 -104 7 -61 -9 -159 -28 -174 -7 -5 -31 -12 -55
-15 -35 -4 -41 -3 -32 8 7 9 10 50 9 109 -3 93 6 126 34 126 5 0 3 -8 -5 -17
-12 -14 -14 -36 -10 -105 4 -77 7 -88 23 -88 30 0 49 39 49 101 0 60 -14 115
-36 138 -20 22 -61 -1 -73 -41 -5 -18 -10 -25 -10 -15 -1 23 25 74 41 80 20 8
28 8 48 -3z m360 -16 c0 -8 -6 -14 -14 -14 -8 0 -17 -6 -19 -12 -3 -7 -6 -4
-6 8 -1 22 18 46 31 38 4 -3 8 -12 8 -20z m-1230 2 c-14 -14 -13 -37 6 -140
15 -80 18 -87 30 -71 12 16 14 16 14 3 0 -9 -5 -20 -10 -23 -7 -4 -7 -12 0
-24 8 -16 5 -20 -15 -24 -21 -3 -24 -1 -20 14 7 21 -32 240 -46 254 -15 15
-10 20 21 20 18 0 26 -3 20 -9z m310 -11 c-7 -8 -7 -14 -1 -17 5 -1 21 -37 35
-78 17 -50 27 -69 31 -58 8 20 2 137 -8 158 -5 11 -1 15 17 15 19 0 22 -3 14
-13 -6 -7 -10 -46 -9 -87 1 -41 -3 -83 -8 -94 -9 -16 -8 -22 6 -30 15 -9 16
-12 4 -20 -9 -6 -11 -18 -7 -37 13 -52 -2 -20 -37 76 -19 52 -32 101 -29 109
3 10 0 12 -11 8 -11 -4 -16 3 -19 26 -3 18 -8 39 -12 48 -6 13 -2 16 19 12 19
-4 23 -8 15 -18z m175 13 c21 -9 31 -9 48 1 l22 14 -20 -24 c-11 -13 -21 -26
-23 -29 -1 -2 -18 -3 -37 -2 -26 2 -35 -2 -40 -18 -12 -38 -14 -16 -3 28 11
46 15 48 53 30z m119 -9 c-14 -15 -21 -129 -8 -129 3 0 19 8 35 17 25 15 29
24 29 60 0 23 -4 45 -10 48 -18 11 -10 20 19 20 26 0 28 -2 15 -16 -20 -22
-20 -236 0 -258 13 -14 11 -16 -15 -17 -21 -1 -27 2 -20 9 6 6 11 44 11 84 l0
73 -35 -18 c-33 -16 -35 -19 -35 -71 0 -37 5 -57 15 -65 13 -9 10 -11 -14 -11
-25 0 -28 2 -19 18 11 20 6 232 -5 257 -6 12 0 15 22 15 26 0 28 -2 15 -16z
m462 5 c-15 -11 -16 -20 -6 -86 6 -40 14 -92 17 -115 3 -24 12 -48 19 -54 20
-17 17 -24 -9 -24 -22 0 -23 4 -23 53 1 28 -2 53 -6 55 -4 1 -8 28 -10 59 -3
57 -12 75 -21 41 -3 -10 -5 -1 -6 19 0 20 -3 42 -6 50 -4 9 5 13 31 14 31 0
34 -1 20 -12z m90 -2 c-11 -12 -11 -19 1 -44 9 -16 16 -40 17 -52 2 -36 22
-20 39 32 12 36 16 41 16 21 1 -14 -10 -43 -24 -63 -30 -44 -36 -141 -10 -160
13 -9 10 -11 -14 -11 -19 0 -26 4 -20 10 24 24 3 148 -45 265 -5 11 1 15 24
15 24 0 27 -2 16 -13z m-2021 -62 c3 -5 1 -10 -4 -10 -6 0 -11 5 -11 10 0 6 2
10 4 10 3 0 8 -4 11 -10z m1347 -91 c-3 -84 -1 -102 12 -112 14 -10 12 -12
-13 -12 -23 0 -27 3 -19 13 7 8 9 46 6 101 -4 57 -2 93 5 100 6 6 11 11 12 11
0 0 -2 -45 -3 -101z m-525 49 c-3 -8 -6 -5 -6 6 -1 11 2 17 5 13 3 -3 4 -12 1
-19z m-988 -28 c0 -10 -3 -8 -9 5 -12 27 -12 43 0 25 5 -8 9 -22 9 -30z m2051
18 c0 -4 -9 -8 -20 -8 -14 0 -20 -7 -20 -22 0 -12 -3 -19 -6 -15 -4 3 -4 17 0
31 4 17 12 24 26 23 11 -1 20 -5 20 -9z m-731 -125 c-15 -55 -29 -64 -29 -20
0 22 6 37 15 41 10 4 16 22 17 58 l1 53 4 -45 c3 -24 -1 -64 -8 -87z m479 115
c-6 -17 -58 -30 -58 -14 0 19 11 26 38 26 14 0 22 -5 20 -12z m-798 -8 c0 -5
-5 -10 -11 -10 -5 0 -7 5 -4 10 3 6 8 10 11 10 2 0 4 -4 4 -10z m1045 -32
c-11 -48 -54 -130 -65 -123 -13 8 -13 62 0 70 6 3 10 1 10 -4 0 -6 5 -11 10
-11 11 0 25 29 34 73 4 15 9 27 12 27 3 0 2 -15 -1 -32z m-827 -3 c-3 -3 -9 2
-12 12 -6 14 -5 15 5 6 7 -7 10 -15 7 -18z m692 5 c0 -5 -2 -10 -4 -10 -3 0
-8 5 -11 10 -3 6 -1 10 4 10 6 0 11 -4 11 -10z m-622 -35 c-3 -3 -9 2 -12 12
-6 14 -5 15 5 6 7 -7 10 -15 7 -18z m779 -17 c-3 -7 -5 -2 -5 12 0 14 2 19 5
13 2 -7 2 -19 0 -25z m-252 13 c3 -5 -2 -12 -11 -15 -10 -4 -13 -2 -8 7 4 6
-3 2 -15 -10 -12 -13 -23 -23 -25 -23 -2 0 -3 10 -3 23 0 17 6 22 28 24 16 1
31 -2 34 -6z m-680 -11 c3 -5 1 -10 -4 -10 -6 0 -11 5 -11 10 0 6 2 10 4 10 3
0 8 -4 11 -10z m-1055 -42 c0 -4 -5 -10 -10 -13 -7 -4 -6 -13 1 -27 11 -20 11
-20 -14 -2 -14 11 -31 28 -37 39 -10 16 -10 18 1 8 20 -20 34 -15 16 5 -25 28
-20 33 13 14 16 -9 30 -20 30 -24z m2096 -4 c-3 -8 -10 -13 -16 -9 -6 3 -5 16
3 32 9 21 13 23 15 9 2 -9 1 -24 -2 -32z m-1939 -77 c12 -5 20 -14 17 -18 -3
-5 2 -6 10 -3 9 3 21 -6 32 -26 12 -19 24 -28 33 -25 9 3 12 3 9 -1 -4 -3 2
-14 14 -24 32 -25 15 -39 -43 -35 -46 4 -58 10 -123 66 -39 35 -75 66 -80 70
-13 11 106 7 131 -4z m981 -4 c-5 -24 -27 -28 -25 -4 1 12 7 21 15 21 7 0 12
-8 10 -17z m241 -7 c23 -1 23 -3 19 -76 -5 -86 -24 -135 -53 -135 -11 -1 -23
4 -27 10 -11 15 -10 73 1 80 6 3 7 -9 4 -30 -5 -31 -3 -35 16 -35 26 0 36 36
24 87 -7 31 -13 38 -32 38 -40 0 -63 -44 -69 -128 -5 -85 18 -153 62 -182 32
-21 50 -10 77 50 23 50 25 30 2 -27 -24 -63 -41 -79 -80 -76 -19 1 -38 7 -43
13 -43 51 -57 240 -25 334 18 55 59 96 84 85 9 -4 27 -8 40 -8z m-1413 -21
c-21 -22 -20 -44 5 -205 14 -85 29 -145 41 -162 10 -14 18 -28 18 -30 0 -1
-18 -3 -39 -3 -34 -1 -38 1 -30 16 5 10 5 36 0 65 -5 26 -7 55 -4 63 3 10 -3
8 -15 -6 -12 -14 -18 -32 -15 -45 3 -17 2 -19 -5 -8 -5 8 -12 31 -16 50 -6 31
-5 33 8 15 13 -18 14 -18 21 4 4 12 3 50 -1 84 -4 34 -7 68 -5 75 1 6 -2 12
-6 12 -15 0 -34 -110 -23 -130 7 -13 6 -19 -3 -23 -6 -2 -20 -37 -31 -77 -25
-97 -66 -140 -80 -84 -12 46 13 113 26 72 6 -18 37 -2 47 24 5 13 12 42 16 66
6 38 5 42 -13 42 -15 0 -22 -8 -25 -27 -3 -23 -4 -21 -6 9 -1 38 12 54 40 50
27 -5 40 108 18 150 -10 19 -9 19 20 13 17 -3 38 -2 48 4 24 13 29 6 9 -14z
m1124 11 c0 -2 -8 -10 -17 -17 -16 -13 -17 -12 -4 4 13 16 21 21 21 13z m394
-23 c3 -8 10 -11 16 -8 5 3 10 4 10 1 0 -7 -61 -39 -65 -34 -2 2 -6 15 -10 29
-6 23 -4 27 19 27 13 0 27 -7 30 -15z m-384 -48 c0 -46 -14 -63 -18 -22 -2 25
6 67 13 67 3 0 5 -20 5 -45z m-1054 -66 c-18 -26 -22 -104 -6 -114 6 -3 10
-39 10 -78 0 -46 -4 -67 -9 -57 -11 18 -51 267 -51 312 l0 33 36 -37 c35 -35
36 -37 20 -59z m1444 61 c-23 -15 -1 -26 23 -11 20 12 20 12 7 -2 -19 -19 -66
-34 -56 -18 4 6 3 11 -3 11 -6 0 -8 7 -5 15 4 8 16 15 28 15 17 0 18 -2 6 -10z
m-1338 -71 c16 -21 20 -44 21 -110 2 -106 -13 -141 -63 -149 -20 -4 -42 -10
-50 -15 -13 -7 -13 -6 -2 7 10 12 13 45 11 115 -3 99 2 123 24 123 8 0 8 -3
-1 -12 -8 -8 -12 -45 -12 -100 0 -87 0 -88 24 -88 14 0 32 10 40 22 21 29 21
129 1 168 -9 17 -15 33 -15 37 1 17 -52 14 -66 -4 -7 -10 -14 -14 -14 -9 0 5
8 18 17 28 23 25 61 19 85 -13z m174 -19 c0 -45 -27 -158 -47 -194 -8 -13 -7
-22 0 -29 17 -17 13 -22 -13 -22 -14 0 -22 5 -19 12 5 13 -33 216 -46 249 -8
18 -6 21 20 21 26 0 28 -2 16 -14 -12 -12 -12 -28 3 -109 18 -97 26 -118 35
-93 27 75 35 107 35 140 0 40 -15 53 -23 22 -3 -12 -5 -8 -6 9 -2 38 9 59 28
56 12 -2 16 -15 17 -48z m124 36 c20 -8 28 -16 21 -20 -6 -4 -9 -11 -7 -14 2
-4 -1 -18 -8 -31 -9 -16 -16 -20 -20 -12 -4 7 -3 18 4 26 14 17 -3 55 -25 55
-22 0 -35 -33 -35 -89 0 -41 3 -49 15 -45 8 4 15 13 15 22 0 8 3 13 6 9 10
-10 -7 -47 -22 -47 -20 0 -19 -78 3 -102 20 -22 27 -22 46 -4 12 13 16 12 24
-7 10 -21 9 -22 -39 -19 -31 3 -55 -1 -65 -10 -15 -11 -16 -11 -8 7 10 25 13
245 3 238 -13 -7 -9 11 8 35 18 25 39 28 84 8z m334 2 c-21 -37 -39 -49 -65
-43 -21 5 -31 1 -44 -17 l-16 -23 6 30 c12 57 12 57 59 50 28 -5 46 -3 50 4
10 15 19 14 10 -1z m185 0 c17 -10 17 -13 4 -26 -8 -8 -12 -21 -9 -29 3 -8 1
-11 -4 -8 -6 3 -10 12 -10 20 0 21 -19 28 -35 15 -23 -19 -18 -47 11 -67 58
-40 64 -50 60 -101 -5 -74 -20 -94 -64 -90 -31 3 -38 8 -46 36 -6 22 -5 41 2
57 14 31 28 32 43 3 11 -20 10 -21 -3 -11 -18 15 -28 7 -28 -20 0 -24 27 -57
47 -57 21 0 36 44 29 83 -7 37 -24 57 -53 61 -27 4 -38 65 -19 110 16 38 40
46 75 24z m127 -38 c-36 -40 -36 -40 -36 -131 0 -75 3 -94 18 -106 16 -14 16
-14 -2 -9 -10 4 -25 1 -34 -6 -13 -12 -14 -10 -3 10 8 15 11 55 9 112 -2 62 1
93 10 102 17 17 15 28 -7 28 -10 0 -26 -10 -34 -22 -14 -22 -15 -20 -5 20 11
44 29 53 68 32 13 -7 21 -6 30 5 7 9 15 13 18 11 3 -3 -12 -24 -32 -46z m767
28 c8 -13 15 -42 16 -65 1 -34 -3 -45 -26 -63 -22 -17 -25 -23 -13 -30 8 -6
17 -10 20 -10 3 0 6 -14 7 -31 1 -18 9 -41 16 -53 13 -19 12 -21 -8 -21 -16 0
-22 6 -22 21 0 12 -10 49 -22 83 -23 66 -26 86 -10 59 23 -40 54 1 43 58 -8
43 -28 53 -54 29 -18 -16 -20 -31 -20 -125 0 -58 4 -110 9 -115 6 -6 2 -10
-13 -11 -18 -1 -22 3 -19 20 7 44 8 206 1 206 -14 0 -9 17 13 44 26 32 63 34
82 4z m142 16 c19 -5 20 -11 15 -63 -6 -67 -25 -98 -46 -80 -16 13 -19 45 -5
53 5 4 7 -2 4 -13 -6 -24 11 -35 27 -16 15 18 4 74 -17 82 -61 24 -77 -162
-18 -217 24 -23 25 -23 45 -5 24 22 27 9 3 -17 -19 -21 -56 -24 -72 -4 -18 22
-35 128 -27 177 7 50 39 109 58 109 7 0 22 -3 33 -6z m-1456 -21 c-7 -7 -6
-13 0 -17 6 -4 20 -38 32 -76 13 -39 27 -70 31 -70 11 0 10 123 -1 152 -8 20
-5 23 17 25 17 1 21 -2 11 -7 -10 -7 -12 -30 -10 -93 2 -56 -1 -87 -9 -92 -8
-5 -7 -12 5 -25 12 -13 13 -20 5 -25 -7 -4 -9 -18 -5 -34 13 -50 -5 -14 -39
81 -19 53 -32 99 -29 102 4 3 -1 6 -10 6 -12 0 -17 8 -17 26 0 14 -4 33 -9 42
-7 14 -4 17 14 17 17 0 21 -3 14 -12z m297 5 c-13 -7 -16 -30 -16 -131 0 -85
4 -127 13 -136 10 -11 9 -12 -1 -7 -7 4 -20 2 -29 -6 -15 -11 -16 -11 -8 7 13
28 18 221 7 254 -9 26 -8 28 20 28 22 0 26 -2 14 -9z m634 -2 c-13 -13 -13
-126 0 -126 6 0 22 7 35 16 27 17 34 68 16 103 -9 15 -5 18 20 18 23 0 27 -3
15 -9 -25 -14 -23 -245 2 -265 16 -14 16 -14 -2 -9 -10 4 -25 1 -32 -5 -9 -8
-14 -8 -14 -1 0 6 5 14 10 17 6 3 10 40 10 82 0 73 -1 75 -18 60 -10 -10 -26
-17 -35 -17 -14 0 -17 -10 -17 -58 0 -33 5 -64 13 -71 10 -11 9 -12 -1 -7 -7
4 -20 2 -29 -6 -15 -11 -16 -11 -8 7 12 31 18 195 7 240 -8 38 -7 40 14 40 15
0 20 -3 14 -9z m160 0 c-6 -6 -10 -54 -10 -107 0 -82 3 -100 20 -120 l20 -24
20 24 c16 19 20 38 20 105 0 48 -6 91 -14 107 -13 25 -12 26 16 26 18 0 24 -3
16 -8 -10 -6 -12 -34 -10 -107 5 -119 -12 -172 -52 -172 -37 0 -46 27 -46 132
0 51 -4 107 -9 123 -7 27 -6 30 15 30 14 0 20 -3 14 -9z m454 -7 c-16 -18 -20
-119 -4 -119 5 0 21 5 36 12 24 11 26 16 22 68 -4 52 -3 55 19 55 14 0 19 -3
13 -9 -13 -13 -13 -249 -1 -261 6 -6 2 -10 -13 -11 -18 -1 -22 3 -19 25 1 14
4 51 6 82 l3 57 -38 -20 c-36 -19 -38 -23 -38 -66 0 -29 6 -52 17 -64 16 -18
16 -18 0 -12 -10 3 -25 0 -35 -7 -14 -11 -15 -11 -4 1 15 18 17 261 1 277 -7
7 -1 10 20 9 26 -1 28 -3 15 -17z m-2047 -51 c-3 -8 -6 -5 -6 6 -1 11 2 17 5
13 3 -3 4 -12 1 -19z m2093 -2 c0 -14 -4 -28 -10 -31 -6 -4 -10 7 -10 24 0 17
5 31 10 31 6 0 10 -11 10 -24z m-1418 -86 c-3 -74 0 -105 10 -117 10 -13 10
-15 0 -9 -7 4 -19 2 -27 -4 -10 -8 -15 -9 -15 -2 0 6 5 14 10 17 13 8 13 130
0 154 -6 13 -5 24 6 39 8 12 16 22 17 22 1 0 0 -45 -1 -100z m-581 10 c0 -34
-4 -67 -10 -73 -12 -12 -16 98 -5 128 11 27 15 11 15 -55z m654 50 c3 -5 2
-10 -4 -10 -5 0 -13 5 -16 10 -3 6 -2 10 4 10 5 0 13 -4 16 -10z m639 -9 c3
-5 -3 -11 -14 -14 -20 -5 -26 3 -13 16 9 10 21 9 27 -2z m-905 -138 c-15 -56
-29 -64 -29 -19 0 25 4 36 15 36 11 0 15 14 17 58 1 53 2 54 5 12 3 -24 -1
-64 -8 -87z m-41 92 c23 -27 29 -55 11 -55 -21 0 -65 61 -52 74 11 10 19 7 41
-19z m202 -17 c-1 -40 -2 -42 -15 -24 -20 26 -19 66 0 66 11 0 15 -11 15 -42z
m337 20 c-3 -8 -6 -5 -6 6 -1 11 2 17 5 13 3 -3 4 -12 1 -19z m-227 -42 c0
-40 -13 -66 -33 -66 -5 0 -3 8 4 17 9 11 10 14 2 9 -10 -5 -12 3 -9 33 7 74
36 81 36 7z m953 -77 c-4 -4 -8 20 -7 54 0 85 7 95 11 18 2 -35 0 -68 -4 -72z
m300 100 c4 -15 2 -19 -9 -15 -9 4 -19 -7 -29 -30 -17 -41 -35 -41 -47 1 -9
34 -1 50 17 35 15 -13 55 2 55 20 0 17 7 11 13 -11z m-1625 -14 c-3 -3 -9 2
-12 12 -6 14 -5 15 5 6 7 -7 10 -15 7 -18z m1262 -24 c0 -11 -4 -23 -10 -26
-6 -4 -10 5 -10 19 0 14 5 26 10 26 6 0 10 -9 10 -19z m-470 -11 c-20 -13 -33
-13 -25 0 3 6 14 10 23 10 15 0 15 -2 2 -10z m-51 -16 c2 -2 -10 -4 -27 -4
-18 0 -32 5 -32 10 0 9 47 4 59 -6z m971 -8 c0 -14 -4 -28 -10 -31 -6 -4 -10
7 -10 24 0 17 5 31 10 31 6 0 10 -11 10 -24z m-1453 -2 c3 -8 0 -21 -7 -27
-10 -10 -12 -8 -7 6 4 9 2 17 -3 17 -6 0 -10 5 -10 10 0 16 20 12 27 -6z
m1153 -22 c0 -7 -4 -10 -10 -7 -5 3 -10 16 -10 28 0 18 2 19 10 7 5 -8 10 -21
10 -28z m-635 3 c-57 -17 -105 -19 -105 -6 0 12 21 16 95 18 l60 2 -50 -14z"/>
<path d="M1380 2255 c7 -8 17 -15 22 -15 6 0 5 7 -2 15 -7 8 -17 15 -22 15 -6
0 -5 -7 2 -15z"/>
<path d="M400 2261 c0 -5 5 -13 10 -16 6 -3 10 -2 10 4 0 5 -4 13 -10 16 -5 3
-10 2 -10 -4z"/>
<path d="M1820 2121 c6 -12 17 -21 25 -21 21 0 19 5 -11 25 -25 16 -25 16 -14
-4z"/>
<path d="M1860 2129 c0 -5 5 -7 10 -4 6 3 10 8 10 11 0 2 -4 4 -10 4 -5 0 -10
-5 -10 -11z"/>
<path d="M800 1440 c0 -5 5 -10 11 -10 5 0 7 5 4 10 -3 6 -8 10 -11 10 -2 0
-4 -4 -4 -10z"/>
<path d="M1467 2433 c-3 -5 30 -16 73 -24 82 -15 99 -6 20 10 -25 5 -55 12
-66 16 -12 4 -24 3 -27 -2z"/>
<path d="M859 2313 c-13 -16 -12 -17 4 -4 16 13 21 21 13 21 -2 0 -10 -8 -17
-17z"/>
<path d="M1093 273 c9 -2 23 -2 30 0 6 3 -1 5 -18 5 -16 0 -22 -2 -12 -5z"/>
<path d="M1148 263 c7 -3 16 -2 19 1 4 3 -2 6 -13 5 -11 0 -14 -3 -6 -6z"/>
</g>
</svg>
